# xmcd
#
# Track frame offsets:
#	150
#	9880
#	22582
#	30982
#	43635
#	53697
#	66210
#	78667
#	90927
#	103805
#	130160
#	139570
#	151297
#	160892
#	194080
#	205305
#	221450
#	232090
#	245845
#	255982
#
# Disc length: 3562
#
# Revision: 1
# Processed by: cddbd v1.5.1PL0 Copyright (c) Steve Scherf et al.
# Submitted via: ExactAudioCopy v0.90b4
# Normalized: r0:DSETVAR1
#
DISCID=020de814
DTITLE=Various Artist - Roy Orbison and Friends
DYEAR=1998
DGENRE=Country
TTITLE0=Roy Orbison - Blue Blue Day
TTITLE1=Jerry Lee Lewis - Great Balls of Fire
TTITLE2=Roy Orbison - Big Hearted Me
TTITLE3=Johnny Cash - Ring of Fire
TTITLE4=Roy Orbison - I'm Hurting
TTITLE5=Jerry Lee Lewis - High School Confidential
TTITLE6=Roy Orbison - Too Soon to Know
TTITLE7=Johnny Cash - Folsom Prison
TTITLE8=Roy Orbison - I'm a Southern Man
TTITLE9=Jerry Lee Lewis - Me and Bobby McGee
TTITLE10=Roy Orbison - What About Me
TTITLE11=Johnny Cash - I Walk the Line
TTITLE12=Roy Orbison - Can't Wait
TTITLE13=Jerry Lee Lewis - Whole Lotta Shakin Goin On
TTITLE14=Roy Orbison - Belinda
TTITLE15=Johnny Cash - A Boy Named Sue
TTITLE16=Roy Orbison - No Chain at All
TTITLE17=Jerry Lee Lewis - Jackson
TTITLE18=Roy Orbison - The Same Street
TTITLE19=Johnny Cash - Big River
EXTD=
EXTT0=
EXTT1=
EXTT2=
EXTT3=
EXTT4=
EXTT5=
EXTT6=
EXTT7=
EXTT8=
EXTT9=
EXTT10=
EXTT11=
EXTT12=
EXTT13=
EXTT14=
EXTT15=
EXTT16=
EXTT17=
EXTT18=
EXTT19=
PLAYORDER=
